<?xml version="1.0" standalone="no"?>
<!DOCTYPE svg PUBLIC "-//W3C//DTD SVG 20010904//EN"
 "http://www.w3.org/TR/2001/REC-SVG-20010904/DTD/svg10.dtd">
<svg version="1.0" xmlns="http://www.w3.org/2000/svg"
 width="300.000000pt" height="300.000000pt" viewBox="0 0 300.000000 300.000000"
 preserveAspectRatio="xMidYMid meet">
<metadata>
Created by potrace 1.11, written by Peter Selinger 2001-2013
</metadata>
<g transform="translate(0.000000,300.000000) scale(0.100000,-0.100000)"
fill="#000000" stroke="none">
<path d="M1351 2754 c-103 -37 -196 -136 -244 -259 -26 -67 -28 -197 -4 -242
9 -18 17 -36 17 -42 0 -5 -25 -38 -56 -73 -124 -141 -303 -454 -337 -590 -29
-117 -19 -231 31 -338 28 -61 116 -153 175 -185 20 -11 36 -24 34 -29 -2 -5
-26 -17 -54 -26 -69 -22 -98 -43 -131 -92 -24 -37 -27 -51 -27 -124 l0 -83 44
-45 43 -44 -4 -104 c-4 -91 -12 -129 -43 -200 -5 -14 -2 -18 13 -18 12 0 22 9
25 21 3 12 10 18 17 14 6 -4 9 -13 6 -21 -4 -11 14 -14 102 -14 l107 0 -3 87
c-3 96 10 138 42 138 26 0 44 -54 45 -132 2 -103 -50 -93 487 -93 l473 0 3 53
3 52 25 -50 25 -50 118 -3 118 -3 -36 64 c-41 75 -83 189 -92 252 -5 40 -2 48
30 86 59 68 69 165 26 249 -34 69 -127 137 -207 155 l-33 7 26 34 c14 19 40
64 58 102 32 66 32 68 31 217 -1 136 -3 158 -28 230 -84 248 -268 496 -472
636 -25 17 -58 35 -75 41 -25 8 -29 15 -25 32 51 176 15 321 -94 376 -55 28
-108 33 -159 14z m-21 -82 c0 -14 -23 -32 -42 -32 -21 0 -23 11 -6 28 13 13
48 16 48 4z m-80 -49 c0 -17 -40 -72 -59 -83 -35 -18 -44 -47 -26 -83 26 -51
2 -147 -24 -98 -16 29 -13 100 5 153 19 56 104 147 104 111z m-22 -115 c-3 -7
-11 -13 -18 -13 -7 0 -15 6 -17 13 -3 7 4 12 17 12 13 0 20 -5 18 -12z m342
-243 c0 -8 -4 -15 -10 -15 -5 0 -7 7 -4 15 4 8 8 15 10 15 2 0 4 -7 4 -15z
m17 -257 c42 -12 83 -61 83 -98 0 -32 -20 -57 -59 -72 -78 -30 -432 -76 -494
-64 -71 13 -123 93 -91 141 32 49 174 90 359 103 114 9 147 7 202 -10z m-659
-149 c-96 -187 -139 -366 -118 -486 15 -90 39 -132 114 -204 64 -60 64 -62 46
-81 l-19 -20 -34 21 c-48 29 -101 90 -134 153 -26 49 -28 61 -28 173 0 134 7
159 91 328 60 121 124 230 132 223 1 -2 -21 -50 -50 -107z m556 -430 c12 -116
9 -124 -47 -134 l-38 -7 3 93 c3 90 4 93 28 100 45 13 47 10 54 -52z m-104
-50 c0 -49 -4 -89 -8 -89 -32 0 -62 66 -62 136 0 39 2 43 28 46 15 2 30 2 35
0 4 -2 7 -43 7 -93z m-336 -321 c14 -18 23 -34 21 -36 -2 -2 -19 2 -38 8 -28
11 -33 17 -29 36 6 32 16 30 46 -8z m-34 -93 c11 -13 10 -14 -4 -9 -9 3 -16
10 -16 15 0 13 6 11 20 -6z m-13 -52 c-3 -10 -5 -4 -5 12 0 17 2 24 5 18 2 -7
2 -21 0 -30z m935 -55 c-7 -7 -12 -8 -12 -2 0 14 12 26 19 19 2 -3 -1 -11 -7
-17z m-1141 -54 c-5 -16 -10 -21 -10 -12 -1 18 10 51 15 45 2 -1 -1 -16 -5
-33z m1094 26 c-3 -5 -11 -10 -16 -10 -6 0 -7 5 -4 10 3 6 11 10 16 10 6 0 7
-4 4 -10z m-55 -25 c-14 -8 -32 -14 -40 -14 -8 0 -1 7 15 14 39 18 57 18 25 0z
m-695 -5 c-3 -5 -14 -10 -23 -10 -15 0 -15 2 -2 10 20 13 33 13 25 0z m632
-16 c-3 -3 -12 -4 -19 -1 -8 3 -5 6 6 6 11 1 17 -2 13 -5z m-542 -14 c18 -8
17 -9 -7 -9 -15 -1 -30 4 -33 9 -7 12 12 12 40 0z m490 0 c-11 -5 -31 -9 -45
-9 -23 0 -23 1 -5 9 11 5 31 9 45 9 23 0 23 -1 5 -9z m-928 -47 c-3 -10 -5 -4
-5 12 0 17 2 24 5 18 2 -7 2 -21 0 -30z m506 30 c-7 -2 -21 -2 -30 0 -10 3 -4
5 12 5 17 0 24 -2 18 -5z m325 0 c-10 -2 -28 -2 -40 0 -13 2 -5 4 17 4 22 1
32 -1 23 -4z m-155 -10 c-24 -2 -62 -2 -85 0 -24 2 -5 4 42 4 47 0 66 -2 43
-4z m-342 -134 c9 -17 8 -25 -4 -37 -14 -14 -18 -13 -41 2 -39 25 -34 56 10
56 13 0 28 -9 35 -21z m-257 -278 c-15 -15 -16 -14 -10 9 4 14 10 43 14 65 l7
40 3 -49 c2 -36 -1 -53 -14 -65z"/>
</g>
</svg>
